<svg xmlns="http://www.w3.org/2000/svg" viewBox="0 0 755 223" role="img" aria-label="OKASTR8 wordmark"><path d="M422 -12C642 -12 805 141 805 350C805 559 642 712 422 712C201 712 39 558 39 350C39 142 201 -12 422 -12ZM422 126C297 126 203 217 203 350C203 483 297 574 422 574C547 574 641 483 641 350C641 217 547 126 422 126Z" fill="#0A0A0A" transform="translate(18.000 165.200) scale(0.150000 -0.150000)"/><path d="M83 0H244V177L337 275L562 0H751L444 388L734 700H554L244 373V700H83Z" fill="#0A0A0A" transform="translate(139.350 165.200) scale(0.150000 -0.150000)"/><path d="M-9 0H157L219 150H544L606 0H776L463 700H303ZM270 273 382 540 493 273Z" fill="#0A0A0A" transform="translate(245.100 165.200) scale(0.150000 -0.150000)"/><path d="M313 -12C513 -12 610 88 610 205C610 462 203 373 203 502C203 546 240 582 336 582C398 582 465 564 530 527L580 650C515 691 425 712 337 712C138 712 42 613 42 494C42 234 449 324 449 193C449 150 410 118 314 118C230 118 142 148 83 191L28 69C90 21 202 -12 313 -12Z" fill="#0A0A0A" transform="translate(354.750 165.200) scale(0.150000 -0.150000)"/><path d="M228 0H390V568H614V700H4V568H228Z" fill="#0A0A0A" transform="translate(445.200 165.200) scale(0.150000 -0.150000)"/><path d="M83 0H245V195H386C388 195 391 195 394 195L529 0H703L547 225C638 264 690 341 690 446C690 603 577 700 382 700H83ZM245 324V568H377C476 568 526 523 526 446C526 370 476 324 377 324Z" fill="#0A0A0A" transform="translate(532.650 165.200) scale(0.150000 -0.150000)"/><path d="M329 -12C507 -12 625 71 625 203C625 278 586 334 518 368C570 400 600 449 600 512C600 635 490 712 329 712C170 712 60 635 60 512C60 449 90 401 141 368C74 334 35 278 35 203C35 71 152 -12 329 -12ZM329 107C249 107 199 146 199 208C199 270 249 308 329 308C410 308 461 270 461 208C461 146 410 107 329 107ZM329 419C263 419 221 452 221 505C221 560 264 593 329 593C395 593 439 560 439 505C439 452 396 419 329 419Z" fill="#A3E635" transform="translate(637.650 165.200) scale(0.150000 -0.150000)"/></svg>